<svg xmlns="http://www.w3.org/2000/svg" viewBox="0 0 200 200" fill="none">
  <!-- Circle background -->
  <circle cx="100" cy="100" r="90" fill="#6366f1" opacity="0.9"/>
  
  <!-- Eye symbol -->
  <ellipse cx="100" cy="100" rx="40" ry="30" fill="white" stroke="#6366f1" stroke-width="3"/>
  <circle cx="100" cy="100" r="15" fill="#6366f1"/>
  
  <!-- Stars/sparkles -->
  <path d="M50 40 L53 45 L58 46 L53 51 L54 56 L50 53 L46 56 L47 51 L42 46 L47 45 Z" fill="white"/>
  <path d="M155 45 L158 50 L163 51 L158 56 L159 61 L155 58 L151 61 L152 56 L147 51 L152 50 Z" fill="white"/>
  <path d="M140 150 L143 155 L148 156 L143 161 L144 166 L140 163 L136 166 L137 161 L132 156 L137 155 Z" fill="white"/>
  <path d="M60 145 L63 150 L68 151 L63 156 L64 161 L60 158 L56 161 L57 156 L52 151 L57 150 Z" fill="white"/>
  
  <!-- Light reflection -->
  <circle cx="85" cy="85" r="8" fill="white" opacity="0.7"/>
</svg>
